<?xml version="1.0" encoding="UTF-8"?>
<svg width="1440px" height="447px" viewBox="0 0 1440 447" version="1.1" xmlns="http://www.w3.org/2000/svg" xmlns:xlink="http://www.w3.org/1999/xlink">
    <!-- Generator: Sketch 47 (45396) - http://www.bohemiancoding.com/sketch -->
    <title>Group 103</title>
    <desc>Created with Sketch.</desc>
    <defs>
        <linearGradient x1="81.2911228%" y1="-1.66533454e-14%" x2="1.11022302e-14%" y2="100%" id="linearGradient-1">
            <stop stop-color="#FC5C7D" stop-opacity="0.835597826" offset="0%"></stop>
            <stop stop-color="#6A82FB" stop-opacity="0" offset="100%"></stop>
        </linearGradient>
        <linearGradient x1="81.2911228%" y1="0%" x2="0%" y2="100%" id="linearGradient-2">
            <stop stop-color="#FC5C7D" stop-opacity="0.471071105" offset="0%"></stop>
            <stop stop-color="#6A82FB" stop-opacity="0.741508152" offset="100%"></stop>
        </linearGradient>
        <linearGradient x1="81.2911228%" y1="0%" x2="0%" y2="100%" id="linearGradient-3">
            <stop stop-color="#FC5C7D" stop-opacity="0.836560236" offset="0%"></stop>
            <stop stop-color="#6A82FB" stop-opacity="0.530457428" offset="100%"></stop>
        </linearGradient>
        <linearGradient x1="81.2911228%" y1="0%" x2="0%" y2="100%" id="linearGradient-4">
            <stop stop-color="#FC5C7D" stop-opacity="0.542176178" offset="0%"></stop>
            <stop stop-color="#6A82FB" stop-opacity="0.959946784" offset="100%"></stop>
        </linearGradient>
    </defs>
    <g id="Symbols" stroke="none" stroke-width="1" fill="none" fill-rule="evenodd">
        <g id="Sign-In/Sign-Up---Background" transform="translate(0.000000, -553.000000)">
            <g id="Group-103" transform="translate(720.000000, 500.000000) scale(1, -1) translate(-720.000000, -500.000000) ">
                <path d="M-2,270.520103 L-2,-1.13686838e-13 L1440,0 L1440,447 C1385.27259,432.041898 1285.67,354.689244 1285.67,354.689244 C1285.67,354.689244 1082.69581,194.525513 928.36,181.846395 C774.024192,169.167276 755.323028,191.29379 668.267,247.914667 C581.210972,304.535543 505.44173,373.30179 403.61773,373.30179 C242.81973,373.30179 245.7,270.520103 -2,270.520103 Z" id="wave" fill="url(#linearGradient-1)" opacity="0.596976902"></path>
                <path d="M767.735131,-1.46157033 L767.735131,0.0667003819 L1439.98751,0.0667003819 L1440.02012,151.378573 C1349.21453,212.768093 1276.81786,244.120048 1222.83012,245.434441 C1085.54224,248.76073 1051.73351,170.267534 948.497161,89.7840694 C845.260814,9.30060524 767.735131,-2.46157033 767.735131,-1.46157033 Z" id="wave_копия_3" fill="url(#linearGradient-2)" opacity="0.375169837"></path>
                <path d="M-79,64.8198831 L-79,-20 L1515.95909,-5.68434189e-14 L1515.95909,268.809784 C1447.94703,268.809784 1431.05368,240.945537 1292.3634,240.945537 C1153.67313,240.945537 1131.98001,316.205842 1033.21814,316.205842 C961.415674,316.205842 914.554855,268.282687 889.897876,245.698212 C865.240897,223.113737 821.744981,137.290156 703.573164,130.47633 C585.401348,123.662504 497.47431,187.41593 376.094993,188.977903 C238.80711,190.736066 179.55752,144.525801 101.76203,106.706426 C23.9665398,68.8870505 -79,64.8198831 -79,64.8198831 Z" id="wave_копия_3" fill="url(#linearGradient-3)" opacity="0.920742754"></path>
                <path d="M1300.97956,-0.0193795765 C1218.73278,85.6691505 1138.89526,127.543784 1061.467,125.604522 C939.7,122.551323 851.5,-10.2505021 732.953,3.10328119 C614.406,16.4570644 570.77,133.716452 546.04,177.982553 C521.31,222.248654 474.29,271.186462 402.27,271.186462 C303.19,271.186462 281.43,188.269051 142.3,188.269051 C104.257606,188.269051 56.9889198,194.944609 0.493939818,208.295724 L-0.0180135494,-0.0193795765 L1300.97956,-0.0193795765 Z" id="wave" fill="url(#linearGradient-4)"></path>
            </g>
        </g>
    </g>
</svg>