<?xml version="1.0" encoding="UTF-8"?>
<svg width="127px" height="114px" viewBox="0 0 127 114" version="1.1" xmlns="http://www.w3.org/2000/svg" xmlns:xlink="http://www.w3.org/1999/xlink">
    <g id="Symbols" stroke="none" stroke-width="1" fill-rule="evenodd">
        <g id="Top" transform="translate(-170.000000, 0.000000)">
            <g id="Page-1">
                <g transform="translate(170.000000, 0.000000)">
                    <path d="M49.5927567,0.0105894155 C49.2914057,0.0427106427 49.0317911,0.119660396 48.732916,0.214259174 L48.732916,0.214259174 C48.7131088,0.219553882 48.6933017,0.222024746 48.6738483,0.22520157 L48.6738483,0.22520157 C48.581533,0.241085694 48.4421759,0.264735388 48.2897319,0.336037453 L48.2897319,0.336037453 C48.1899889,0.382630881 48.1139438,0.439107764 48.0566447,0.487819076 L48.0566447,0.487819076 C47.9883809,0.509350887 47.8939434,0.544648939 47.8069336,0.604655627 L47.8069336,0.604655627 C47.6513063,0.704549114 47.5469653,0.822444607 47.4783478,0.900453301 L47.4783478,0.900453301 C47.4613703,0.919514249 47.4454539,0.9403401 47.435904,0.948811632 L47.435904,0.948811632 C47.2254535,1.12459593 47.0217232,1.30143917 46.8558387,1.52275795 L46.8558387,1.52275795 C46.680758,1.7430178 46.5626227,1.96786639 46.4699537,2.15318116 L46.4699537,2.15318116 C46.3564166,2.37132312 46.2393424,2.60746709 46.1689564,2.87043757 L46.1689564,2.87043757 C46.0914965,3.13870277 46.0663839,3.38473019 46.0494064,3.59475359 L46.0494064,3.59475359 C46.0235864,3.82948564 46.0034256,4.08610248 46.0338436,4.39284255 L46.0338436,4.39284255 C46.0692135,4.674521 46.1466734,4.93431466 46.2142298,5.13974932 L46.2142298,5.13974932 C46.2227186,5.16692882 46.2255482,5.19516726 46.2297925,5.22269974 L46.2297925,5.22269974 C46.2485386,5.33388861 46.2743585,5.48602321 46.3532333,5.65439492 L46.3532333,5.65439492 L70.7364919,57.7659677 C67.6041391,57.634306 64.4229759,58.2784954 61.4685334,59.6551195 L61.4685334,59.6551195 C57.3355679,61.5809812 54.0444045,64.6903865 52.2009285,68.4093893 L52.2009285,68.4093893 C50.3312789,72.182398 50.1731757,76.1237785 51.7563297,79.5070968 L51.7563297,79.5070968 C52.2253337,80.5088555 52.8344023,81.4100147 53.5474582,82.2165752 L53.5474582,82.2165752 C47.7004704,83.6757967 42.0391742,84.8769894 36.7450169,85.7820314 L36.7450169,85.7820314 C33.839031,81.0471508 32.1182884,75.5212408 32.0047513,69.627878 L32.0047513,69.627878 C31.768127,57.3593342 38.4272064,46.5969582 48.3654233,40.9347977 L48.3654233,40.9347977 C51.6809919,39.0459989 52.9712836,34.9295401 51.2325024,31.5377503 L51.2325024,31.5377503 L51.1734347,31.4237376 C49.7759725,28.6980221 46.4207897,27.6030765 43.6962511,29.0111158 L43.6962511,29.0111158 C29.3322063,36.4335901 19.4534107,51.3353686 19.2737319,68.5202252 L19.2737319,68.5202252 C18.4963029,68.9289766 17.7308996,69.338434 16.9909626,69.7478914 L16.9909626,69.7478914 C5.51309659,76.096246 0.0229903944,81.5346169 0,86.6609529 L0,86.6609529 L0,86.7241364 C0.00318328538,87.4360981 0.111768687,88.1424122 0.324341411,88.8444904 L0.324341411,88.8444904 C1.75752723,93.5712525 7.23383919,95.8490358 17.3825067,95.8490358 L17.3825067,95.8490358 C19.6256618,95.8490358 22.0969523,95.7378469 24.803806,95.5168811 L24.803806,95.5168811 C25.7740007,95.4378135 26.7728449,95.3396849 27.7840685,95.2327318 L27.7840685,95.2327318 C35.9233756,106.485751 49.1290581,113.884575 64.0095025,113.998588 L64.0095025,113.998588 C64.0975734,113.999294 64.1874128,114 64.2754837,114 L64.2754837,114 L64.4459663,114 C89.1210261,113.957289 109.202959,94.034363 109.45267,69.4570355 L109.45267,69.4570355 C109.6373,69.356789 109.826529,69.2561895 110.008684,69.1548841 L110.008684,69.1548841 C110.163604,69.0924066 110.31817,69.0285171 110.473443,68.9663925 L110.473443,68.9663925 C111.028042,68.7443678 111.531709,68.433392 111.952964,68.052879 L111.952964,68.052879 C122.099509,62.1757533 126.972765,57.073067 127,52.2474703 L127,52.2474703 L127,52.1662848 C126.996109,51.4582059 126.887524,50.7557746 126.676012,50.0579322 L126.676012,50.0579322 C125.088968,44.824643 118.54095,42.595218 106.18768,43.1338663 L106.18768,43.1338663 C104.262146,43.2182287 102.63478,44.5987355 102.238991,46.4815335 L102.238991,46.4815335 C102.233332,46.509419 102.227673,46.5373045 102.221307,46.5651899 L102.221307,46.5651899 C101.691113,49.064292 103.665811,51.3780793 106.22305,51.2619487 L106.22305,51.2619487 C113.89972,50.912498 117.491527,51.8200109 118.684197,52.470907 L118.684197,52.470907 C117.913842,53.938247 114.383933,57.7003133 104.002532,63.1665696 L104.002532,63.1665696 C102.339442,64.0426673 100.5805,64.9187649 98.7402072,65.7913328 L98.7402072,65.7913328 C96.1433537,66.8086226 93.5210339,67.7606111 90.8254986,68.5435219 L90.8254986,68.5435219 C86.2451046,69.8739055 88.193629,77.0291735 92.8001966,75.6913774 L92.8001966,75.6913774 C93.9589125,75.3549869 95.101712,74.9804746 96.2370837,74.5904311 L96.2370837,74.5904311 C93.503349,90.1459296 79.5796587,101.906181 63.0817517,101.267993 L63.0817517,101.267993 C55.2664324,100.965488 48.1574487,97.8596128 42.713677,92.9496538 L42.713677,92.9496538 C50.9962319,91.3418276 59.9554117,89.1078139 69.0769391,86.352095 L69.0769391,86.352095 C69.1929522,86.3079724 69.3814734,86.2359644 69.4971328,86.1914888 L69.4971328,86.1914888 C69.5416988,86.1681921 69.5880333,86.1463073 69.63649,86.1261874 L69.63649,86.1261874 C69.6626637,86.115598 69.689191,86.1043026 69.7153647,86.0933603 L69.7153647,86.0933603 C70.8984858,85.7806195 72.0805458,85.3619846 73.2431523,84.8198065 L73.2431523,84.8198065 C77.3768252,82.8939448 80.6683423,79.7845395 82.5114646,76.0651837 L82.5114646,76.0651837 C84.3811142,72.292528 84.5388637,68.3511475 82.955356,64.9678292 L82.955356,64.9678292 L67.116389,31.1159386 C72.1721536,30.9606272 80.5445479,32.1653497 86.7646875,40.4603919 L86.7646875,40.4603919 C86.7519544,40.5472251 86.7392213,40.6340583 86.7268418,40.7208915 L86.7268418,40.7208915 C86.6465523,41.2701292 86.5708608,41.7886576 86.4378702,42.2468263 L86.4378702,42.2468263 C85.8185444,44.3604736 87.0391575,46.5881337 89.1655921,47.2146741 L89.1655921,47.2146741 C90.6394532,47.6304851 92.2625751,47.2026727 93.3272072,45.9778303 L93.3272072,45.9778303 C93.7286549,45.5154259 94.0024174,44.9573637 94.1683019,44.3685922 L94.1683019,44.3685922 C94.4784954,43.266587 94.7144122,41.9760902 94.9082389,40.3259063 L94.9082389,40.3259063 C94.9344126,40.2203651 94.9524512,40.1162359 94.9687214,40.0114007 L94.9687214,40.0114007 L94.9874674,39.8896224 C95.5339314,34.5500861 94.6755054,28.5204729 92.6318362,23.3461315 L92.6318362,23.3461315 C91.2700974,19.9035125 88.8798038,16.7376302 85.7195088,14.1912287 L85.7195088,14.1912287 C80.7518151,10.1873707 75.1142167,9.31692077 69.6584193,8.47470926 L69.6584193,8.47470926 C65.7224637,7.87075959 62.0047401,7.30069605 58.790683,5.55379547 L58.790683,5.55379547 L58.1964697,5.23399512 C56.4117077,4.27459407 54.1904819,3.08081396 53.3543389,1.79631786 L53.3543389,1.79631786 C53.2517664,1.63535874 53.1318627,1.5291116 53.0522805,1.45922146 L53.0522805,1.45922146 C53.0335345,1.4422784 53.01302,1.42639427 53.0045312,1.4168638 L53.0045312,1.4168638 C52.8287431,1.20754635 52.651894,1.00458255 52.4368453,0.843976418 L52.4368453,0.843976418 C52.22498,0.671368945 52.0049796,0.557709218 51.8107992,0.457462751 L51.8107992,0.457462751 L51.7683554,0.43593094 C51.5713454,0.337449375 51.3481617,0.225907531 51.0991581,0.154605467 L51.0991581,0.154605467 C50.7942701,0.0642424543 50.5187391,0.0363569933 50.2849444,0.0215318116 L50.2849444,0.0215318116 C50.1600889,0.010236435 50.0193169,0 49.863336,0 L49.863336,0 C49.777741,0 49.6875479,0.00317682466 49.5927567,0.0105894155 L49.5927567,0.0105894155 Z M59.2943495,14.3994872 C62.222972,15.3761843 65.1922699,15.8844763 68.4325007,16.3853556 L68.4325007,16.3853556 C73.0404831,17.0948465 77.3930954,17.7648035 80.6743552,20.4114514 L80.6743552,20.4114514 C82.7289891,22.0729307 84.3255835,24.1590456 85.1680931,26.2864592 L85.1680931,26.2864592 L85.1684468,26.2864592 C85.4715663,27.049956 85.7467436,27.8614582 85.9918566,28.7121413 L85.9918566,28.7121413 C79.2839669,24.0580932 72.2078772,23.0941034 67.5026277,23.0941034 L67.5026277,23.0941034 C65.8133642,23.0941034 64.4296962,23.2183525 63.4782475,23.3408367 L63.4782475,23.3408367 L59.2943495,14.3994872 Z M59.021648,76.1213076 C57.6928032,73.2812264 60.4215862,68.9748641 64.8612082,66.9056923 L64.8612082,66.9056923 C66.5670955,66.1107801 68.4293174,65.6893214 70.1528896,65.6893214 L70.1528896,65.6893214 C70.6480673,65.6893214 71.131573,65.7239135 71.5966864,65.7948626 L71.5966864,65.7948626 C73.6074616,66.1001907 75.061162,67.0091156 75.6903914,68.3539713 L75.6903914,68.3539713 C76.3196208,69.6981212 76.0844114,71.3938396 75.0286217,73.1287388 L75.0286217,73.1287388 C73.9332178,74.9275275 72.0458833,76.5462962 69.8508312,77.5692337 L69.8508312,77.5692337 C68.1053297,78.3828538 66.263976,78.7718383 64.5909826,78.7718383 L64.5909826,78.7718383 C62.0086308,78.7721913 59.828434,77.8449115 59.021648,76.1213076 L59.021648,76.1213076 Z M8.31615622,86.4311626 C9.00799024,85.1127804 11.9330758,81.9398385 20.0529294,77.3429732 L20.0529294,77.3429732 C20.7263711,80.8865446 21.8178843,84.2878649 23.2775975,87.4918691 L23.2775975,87.4918691 C21.0942174,87.6514163 19.189198,87.7184826 17.5349507,87.7184826 L17.5349507,87.7184826 C12.0572239,87.7184826 9.32631878,86.9828712 8.31615622,86.4311626 L8.31615622,86.4311626 Z" id="Fill-1"></path>
                </g>
            </g>
        </g>
    </g>
</svg>
